<?xml version="1.0" encoding="utf-8"?>
<!-- Generator: Adobe Illustrator 21.0.0, SVG Export Plug-In . SVG Version: 6.00 Build 0)  -->
<svg version="1.1" id="圖層_1" xmlns="http://www.w3.org/2000/svg" xmlns:xlink="http://www.w3.org/1999/xlink" x="0px" y="0px"
	 viewBox="0 0 71 73" style="enable-background:new 0 0 71 73;" xml:space="preserve">
<style type="text/css">
	.st0{fill:#F3E9F4;}
</style>
<g>
	<path class="st0" d="M5.3,61.5c8.1-5.6,17.2-14.5,17.2-26.4c-2,1.1-3.8,1.8-5.9,1.8c-7.9,0-12.9-5.7-12.9-11.8
		c0-7,4.3-12.9,12.9-12.9c7,0,15.4,4.5,15.4,17.9c0,14.3-10,25.6-24,35.2L5.3,61.5z"/>
</g>
<g>
	<path class="st0" d="M42.3,61.5c8.1-5.6,17.2-14.5,17.2-26.4c-2,1.1-3.8,1.8-5.9,1.8c-7.9,0-12.9-5.7-12.9-11.8
		c0-7,4.3-12.9,12.9-12.9c7,0,15.4,4.5,15.4,17.9c0,14.3-10,25.6-24,35.2L42.3,61.5z"/>
</g>
</svg>
