<?xml version="1.0" encoding="utf-8"?>
<!-- Generator: Adobe Illustrator 21.0.0, SVG Export Plug-In . SVG Version: 6.00 Build 0)  -->
<svg version="1.1" id="圖層_1" xmlns="http://www.w3.org/2000/svg" xmlns:xlink="http://www.w3.org/1999/xlink" x="0px" y="0px"
	 viewBox="0 0 548 747" style="enable-background:new 0 0 548 747;" xml:space="preserve">
<style type="text/css">
	.st0{fill:#973BA8;}
	.st1{fill:#FFFFFF;}
	.st2{enable-background:new    ;}
	.st3{fill:#5598DF;}
</style>
<g>
	<path class="st0" d="M191.8,613.7c0-20.1-0.2-38.9,0.1-57.7c0.1-5.6-1.2-7.8-7-9.1c-20.5-4.5-34.7-22.7-34.8-43.8
		c-0.1-20.8-0.1-41.7,0-62.5c0.2-24.5,19.7-44.6,44.4-44.8c42.8-0.3,85.7-0.3,128.5,0c24.8,0.2,44,20.1,44.1,45
		c0.1,20.3,0.1,40.7,0,61c-0.1,27.2-19.7,46.8-47.1,46.9c-16.8,0.1-33.7,0.1-50.5,0c-3.2,0-5.6,0.9-8,3
		c-21.9,19.8-43.9,39.4-65.9,59C194.8,611.5,193.9,612.1,191.8,613.7z M206,580.5c2.1,0.4,2.7-0.8,3.5-1.5
		c15.7-14,31.3-27.9,46.9-42c2.3-2.1,4.5-2.9,7.5-2.9c19.2,0.1,38.3,0.1,57.5,0c17.8-0.1,31.3-13.5,31.5-31.3
		c0.1-20.5,0.1-41,0-61.5c-0.1-17.7-13.7-31.3-31.4-31.3c-41.8-0.1-83.6-0.1-125.4,0c-17.9,0-31.2,13.3-31.3,31.3
		c-0.1,20.5,0,41,0,61.5c0,4.7,0.7,9.3,2.9,13.5c6.9,13.5,18.3,18.8,32.9,17.7c4.2-0.3,6.1,0.7,5.6,5.3c-0.4,4.5-0.1,9-0.1,13.5
		C206,562.1,206,571.3,206,580.5z"/>
	<path class="st0" d="M250.2,586.6c8-8.2,16-16.3,24-24.6c1.5-1.6,3.4-1.1,5.2-1.2c17.5,0,35-0.1,52.5,0c4.7,0,9.3-0.4,13.9-1.3
		c22.8-4.4,35.7-20.1,36.1-44.7c0.4-19.3,0.1-38.6,0.1-58c0-1.7,0-3.3,0-5.7c5.2,2.3,8.9,5.7,12.1,9.6c6.5,7.8,9.7,17,9.8,27.1
		c0.1,19.3,0,38.6,0,58c0,24.2-13.5,38.5-37.7,40c-8.1,0.5-8.1,0.5-8.3,8.8c-0.6,17.4-1.3,34.9-1.9,52.7c-4-3.8-7.7-7.1-11.3-10.7
		c-14.6-15.1-29.2-30.1-43.7-45.3c-2.4-2.5-4.7-3.6-8.2-3.5c-14,0.2-27.9,0.1-41.9,0.1C250.6,587.5,250.4,587.1,250.2,586.6z"/>
	<path class="st0" d="M343.1,408.5H172.4c-6.8,0-12.4,5.6-12.4,12.4v101.7c0,6.8,5.6,12.4,12.4,12.4h28.1l5,58.5l63.7-58.5h73.9
		c6.8,0,12.4-5.6,12.4-12.4V420.9C355.5,414.1,349.9,408.5,343.1,408.5z"/>
	<path class="st1" d="M258.5,460.6c7-0.1,13.2,5.7,13.4,12.8c0.2,7.3-5.6,13.5-13,13.6s-13.6-5.7-13.7-13
		C245.1,466.8,251.1,460.7,258.5,460.6z"/>
	<path class="st1" d="M203.2,487c-7.4-0.1-13.2-6.1-13.1-13.5c0.2-7,6.3-13,13.3-12.9c7.4,0.1,13.5,6.3,13.4,13.4
		C216.6,481.3,210.6,487.1,203.2,487z"/>
	<path class="st1" d="M327,473.7c0.1,7.4-5.8,13.3-13.2,13.3c-7.3,0-13.3-6-13.3-13.3c0-7,5.9-12.9,13.1-13.1
		C320.8,460.4,326.9,466.4,327,473.7z"/>
	<g class="st2">
		<path class="st0" d="M98.7,701.1l3.3,0.8c-0.7,2.7-2,4.8-3.8,6.3c-1.8,1.4-4,2.2-6.7,2.2c-2.7,0-4.9-0.6-6.6-1.7s-3-2.7-3.9-4.8
			c-0.9-2.1-1.3-4.3-1.3-6.8c0-2.6,0.5-4.9,1.5-6.9s2.4-3.4,4.3-4.5s3.9-1.5,6.1-1.5c2.5,0,4.6,0.6,6.4,1.9s2.9,3.1,3.6,5.4
			l-3.3,0.8c-0.6-1.8-1.4-3.2-2.5-4c-1.1-0.8-2.5-1.3-4.2-1.3c-1.9,0-3.6,0.5-4.9,1.4s-2.2,2.2-2.7,3.7c-0.5,1.6-0.8,3.2-0.8,4.8
			c0,2.1,0.3,4,0.9,5.6c0.6,1.6,1.6,2.8,2.9,3.6c1.3,0.8,2.7,1.2,4.3,1.2c1.9,0,3.4-0.5,4.7-1.6S98.2,703.2,98.7,701.1z"/>
		<path class="st0" d="M137.9,709.9v-25.2h3.3v10.3h13.1v-10.3h3.3v25.2h-3.3V698h-13.1v11.9H137.9z"/>
		<path class="st0" d="M192.1,709.9l9.7-25.2h3.6l10.3,25.2h-3.8l-2.9-7.6h-10.5l-2.8,7.6H192.1z M199.4,699.6h8.5l-2.6-7
			c-0.8-2.1-1.4-3.9-1.8-5.2c-0.3,1.6-0.8,3.2-1.4,4.8L199.4,699.6z"/>
		<path class="st0" d="M253.8,709.9v-22.2h-8.3v-3h20v3h-8.3v22.2H253.8z"/>
		<path class="st0" d="M341.4,709.9v-25.2h3.4l13.2,19.8v-19.8h3.2v25.2h-3.4l-13.2-19.8v19.8H341.4z"/>
		<path class="st0" d="M397.5,697.6c0-4.2,1.1-7.5,3.4-9.8s5.1-3.5,8.7-3.5c2.3,0,4.4,0.6,6.3,1.7s3.3,2.7,4.3,4.6s1.5,4.2,1.5,6.8
			c0,2.6-0.5,4.8-1.5,6.9c-1,2-2.5,3.5-4.4,4.6c-1.9,1-3.9,1.6-6.1,1.6c-2.4,0-4.5-0.6-6.4-1.7c-1.9-1.1-3.3-2.7-4.2-4.7
			C398,702,397.5,699.9,397.5,697.6z M400.9,697.7c0,3,0.8,5.4,2.4,7.2c1.6,1.7,3.7,2.6,6.1,2.6c2.5,0,4.6-0.9,6.2-2.6
			c1.6-1.8,2.4-4.3,2.4-7.5c0-2.1-0.3-3.8-1-5.4c-0.7-1.5-1.7-2.7-3-3.6c-1.3-0.8-2.8-1.3-4.5-1.3c-2.4,0-4.4,0.8-6.1,2.4
			S400.9,693.9,400.9,697.7z"/>
		<path class="st0" d="M461.9,709.9l-6.7-25.2h3.4l3.8,16.5c0.4,1.7,0.8,3.4,1.1,5.2c0.6-2.7,1-4.2,1.1-4.7l4.8-17h4l3.6,12.8
			c0.9,3.2,1.6,6.1,2,8.9c0.3-1.6,0.7-3.4,1.3-5.5l4-16.2h3.4l-6.9,25.2h-3.2l-5.3-19.2c-0.4-1.6-0.7-2.6-0.8-3
			c-0.3,1.2-0.5,2.1-0.7,3l-5.3,19.2H461.9z"/>
	</g>
</g>
<g>
	<path class="st3" d="M251.5,231.6c0.2,0.4,0.4,0.9,0.6,1.3c14,0,27.9,0.1,41.9-0.1c3.5,0,5.9,1.1,8.2,3.5
		c14.5,15.2,29.1,30.3,43.7,45.3c3.5,3.6,7.3,7,11.3,10.7c0.7-17.8,1.3-35.2,1.9-52.7c0.3-8.3,0.2-8.3,8.3-8.8
		c24.2-1.5,37.7-15.8,37.7-40c0-19.3,0.1-38.6,0-58c0-10.2-3.2-19.3-9.8-27.1c-3.2-3.9-6.9-7.3-12.1-9.6c0,2.4,0,4,0,5.7
		c0,19.3,0.3,38.6-0.1,58c-0.5,24.5-13.4,40.3-36.1,44.7c-4.6,0.9-9.2,1.3-13.9,1.3c-17.5-0.1-35,0-52.5,0c-1.8,0-3.6-0.4-5.2,1.2
		C267.5,215.3,259.5,223.4,251.5,231.6z"/>
	<path class="st3" d="M251.4,232.1c0.2,0.4,0.4,0.9,0.6,1.3c14,0,27.9,0.1,41.9-0.1c3.5,0,5.9,1.1,8.2,3.5
		c14.5,15.2,29.1,30.3,43.7,45.3c3.5,3.6,7.3,7,11.3,10.7c0.7-17.8,1.3-35.2,1.9-52.7c0.3-8.3,0.2-8.3,8.3-8.8
		c24.2-1.5,37.7-15.8,37.7-40c0-19.3,0.1-38.6,0-58c0-10.2-3.2-19.3-9.8-27.1c-3.2-3.9-6.9-7.3-12.1-9.6c0,2.4,0,4,0,5.7
		c0,19.3,0.3,38.6-0.1,58c-0.5,24.5-13.4,40.3-36.1,44.7c-4.6,0.9-9.2,1.3-13.9,1.3c-17.5-0.1-35,0-52.5,0c-1.8,0-3.6-0.4-5.2,1.2
		C267.4,215.8,259.4,223.9,251.4,232.1z"/>
	<path class="st3" d="M193,259.2c0-20.1-0.2-38.9,0.1-57.7c0.1-5.6-1.2-7.8-7-9.1c-20.5-4.5-34.7-22.7-34.8-43.8
		c-0.1-20.8-0.1-41.7,0-62.5c0.2-24.5,19.7-44.6,44.4-44.8c42.8-0.3,85.7-0.3,128.5,0c24.8,0.2,44,20.1,44.1,45
		c0.1,20.3,0.1,40.7,0,61c-0.1,27.2-19.7,46.8-47.1,46.9c-16.8,0.1-33.7,0.1-50.5,0c-3.2,0-5.6,0.9-8,3
		c-21.9,19.8-43.9,39.4-65.9,59C196,257,195.1,257.6,193,259.2z M207.2,226c2.1,0.4,2.7-0.8,3.5-1.5c15.7-14,31.3-27.9,46.9-42
		c2.3-2.1,4.5-2.9,7.5-2.9c19.2,0.1,38.3,0.1,57.5,0c17.8-0.1,31.3-13.5,31.5-31.3c0.1-20.5,0.1-41,0-61.5
		c-0.1-17.7-13.7-31.3-31.4-31.3c-41.8-0.1-83.6-0.1-125.4,0c-17.9,0-31.2,13.3-31.3,31.3c-0.1,20.5,0,41,0,61.5
		c0,4.7,0.7,9.3,2.9,13.5c6.9,13.5,18.3,18.8,32.9,17.7c4.2-0.3,6.1,0.7,5.6,5.3c-0.4,4.5-0.1,9-0.1,13.5
		C207.2,207.6,207.2,216.8,207.2,226z"/>
	<path class="st3" d="M251.4,232.1c8-8.2,16-16.3,24-24.6c1.5-1.6,3.4-1.1,5.2-1.2c17.5,0,35-0.1,52.5,0c4.7,0,9.3-0.4,13.9-1.3
		c22.8-4.4,35.7-20.1,36.1-44.7c0.4-19.3,0.1-38.6,0.1-58c0-1.7,0-3.3,0-5.7c5.2,2.3,8.9,5.7,12.1,9.6c6.5,7.8,9.7,17,9.8,27.1
		c0.1,19.3,0,38.6,0,58c0,24.2-13.5,38.5-37.7,40c-8.1,0.5-8.1,0.5-8.3,8.8c-0.6,17.4-1.3,34.9-1.9,52.7c-4-3.8-7.7-7.1-11.3-10.7
		c-14.6-15.1-29.2-30.1-43.7-45.3c-2.4-2.5-4.7-3.6-8.2-3.5c-14,0.2-27.9,0.1-41.9,0.1C251.8,233,251.6,232.6,251.4,232.1z"/>
	<path class="st3" d="M259.7,106.1c7-0.1,13.2,5.7,13.4,12.8c0.2,7.3-5.6,13.5-13,13.6c-7.4,0.1-13.6-5.7-13.7-13
		C246.3,112.3,252.3,106.2,259.7,106.1z"/>
	<path class="st3" d="M204.4,132.5c-7.4-0.1-13.2-6.1-13.1-13.5c0.2-7,6.3-13,13.3-12.9c7.4,0.1,13.5,6.3,13.4,13.4
		C217.8,126.8,211.8,132.6,204.4,132.5z"/>
	<path class="st3" d="M328.2,119.2c0.1,7.4-5.8,13.3-13.2,13.3c-7.3,0-13.3-6-13.3-13.3c0-7,5.9-12.9,13.1-13.1
		C322,105.9,328.1,111.9,328.2,119.2z"/>
	<g class="st2">
		<path class="st3" d="M100,346.1l3.3,0.8c-0.7,2.7-2,4.8-3.8,6.3c-1.8,1.4-4,2.2-6.7,2.2c-2.7,0-4.9-0.6-6.6-1.7s-3-2.7-3.9-4.8
			c-0.9-2.1-1.3-4.3-1.3-6.8c0-2.6,0.5-4.9,1.5-6.9s2.4-3.4,4.3-4.5s3.9-1.5,6.1-1.5c2.5,0,4.6,0.6,6.4,1.9s2.9,3.1,3.6,5.4
			l-3.3,0.8c-0.6-1.8-1.4-3.2-2.5-4c-1.1-0.8-2.5-1.3-4.2-1.3c-1.9,0-3.6,0.5-4.9,1.4s-2.2,2.2-2.7,3.7c-0.5,1.6-0.8,3.2-0.8,4.8
			c0,2.1,0.3,4,0.9,5.6c0.6,1.6,1.6,2.8,2.9,3.6c1.3,0.8,2.7,1.2,4.3,1.2c1.9,0,3.4-0.5,4.7-1.6S99.5,348.2,100,346.1z"/>
		<path class="st3" d="M139.2,354.9v-25.2h3.3v10.3h13.1v-10.3h3.3v25.2h-3.3V343h-13.1v11.9H139.2z"/>
		<path class="st3" d="M193.4,354.9l9.7-25.2h3.6l10.3,25.2h-3.8l-2.9-7.6h-10.5l-2.8,7.6H193.4z M200.7,344.6h8.5l-2.6-7
			c-0.8-2.1-1.4-3.9-1.8-5.2c-0.3,1.6-0.8,3.2-1.4,4.8L200.7,344.6z"/>
		<path class="st3" d="M255.1,354.9v-22.2h-8.3v-3h20v3h-8.3v22.2H255.1z"/>
		<path class="st3" d="M342.7,354.9v-25.2h3.4l13.2,19.8v-19.8h3.2v25.2h-3.4l-13.2-19.8v19.8H342.7z"/>
		<path class="st3" d="M398.8,342.6c0-4.2,1.1-7.5,3.4-9.8s5.1-3.5,8.7-3.5c2.3,0,4.4,0.6,6.3,1.7s3.3,2.7,4.3,4.6s1.5,4.2,1.5,6.8
			c0,2.6-0.5,4.8-1.5,6.9c-1,2-2.5,3.5-4.4,4.6c-1.9,1-3.9,1.6-6.1,1.6c-2.4,0-4.5-0.6-6.4-1.7c-1.9-1.1-3.3-2.7-4.2-4.7
			C399.3,347,398.8,344.9,398.8,342.6z M402.2,342.7c0,3,0.8,5.4,2.4,7.2c1.6,1.7,3.7,2.6,6.1,2.6c2.5,0,4.6-0.9,6.2-2.6
			c1.6-1.8,2.4-4.3,2.4-7.5c0-2.1-0.3-3.8-1-5.4c-0.7-1.5-1.7-2.7-3-3.6c-1.3-0.8-2.8-1.3-4.5-1.3c-2.4,0-4.4,0.8-6.1,2.4
			S402.2,338.9,402.2,342.7z"/>
		<path class="st3" d="M463.2,354.9l-6.7-25.2h3.4l3.8,16.5c0.4,1.7,0.8,3.4,1.1,5.2c0.6-2.7,1-4.2,1.1-4.7l4.8-17h4l3.6,12.8
			c0.9,3.2,1.6,6.1,2,8.9c0.3-1.6,0.7-3.4,1.3-5.5l4-16.2h3.4l-6.9,25.2h-3.2l-5.3-19.2c-0.4-1.6-0.7-2.6-0.8-3
			c-0.3,1.2-0.5,2.1-0.7,3l-5.3,19.2H463.2z"/>
	</g>
</g>
</svg>
