<?xml version="1.0" encoding="utf-8"?>
<!-- Generator: Adobe Illustrator 21.0.0, SVG Export Plug-In . SVG Version: 6.00 Build 0)  -->
<svg version="1.1" id="圖層_1" xmlns="http://www.w3.org/2000/svg" xmlns:xlink="http://www.w3.org/1999/xlink" x="0px" y="0px"
	 viewBox="0 0 548 376" style="enable-background:new 0 0 548 376;" xml:space="preserve">
<style type="text/css">
	.st0{display:none;fill:#5598DF;}
	.st1{fill:#973BA8;}
	.st2{fill:#FFFFFF;}
	.st3{enable-background:new    ;}
	.st4{display:none;enable-background:new    ;}
	.st5{display:inline;fill:#5598DF;}
</style>
<path class="st0" d="M250.2,215.6c0.2,0.4,0.4,0.9,0.6,1.3c14,0,27.9,0.1,41.9-0.1c3.5,0,5.9,1.1,8.2,3.5
	c14.5,15.2,29.1,30.3,43.7,45.3c3.5,3.6,7.3,7,11.3,10.7c0.7-17.8,1.3-35.2,1.9-52.7c0.3-8.3,0.2-8.3,8.3-8.8
	c24.2-1.5,37.7-15.8,37.7-40c0-19.3,0.1-38.6,0-58c0-10.2-3.2-19.3-9.8-27.1c-3.2-3.9-6.9-7.3-12.1-9.6c0,2.4,0,4,0,5.7
	c0,19.3,0.3,38.6-0.1,58c-0.5,24.5-13.4,40.3-36.1,44.7c-4.6,0.9-9.2,1.3-13.9,1.3c-17.5-0.1-35,0-52.5,0c-1.8,0-3.6-0.4-5.2,1.2
	C266.2,199.3,258.2,207.4,250.2,215.6z"/>
<path class="st1" d="M191.8,242.7c0-20.1-0.2-38.9,0.1-57.7c0.1-5.6-1.2-7.8-7-9.1c-20.5-4.5-34.7-22.7-34.8-43.8
	c-0.1-20.8-0.1-41.7,0-62.5c0.2-24.5,19.7-44.6,44.4-44.8c42.8-0.3,85.7-0.3,128.5,0c24.8,0.2,44,20.1,44.1,45
	c0.1,20.3,0.1,40.7,0,61c-0.1,27.2-19.7,46.8-47.1,46.9c-16.8,0.1-33.7,0.1-50.5,0c-3.2,0-5.6,0.9-8,3c-21.9,19.8-43.9,39.4-65.9,59
	C194.8,240.5,193.9,241.1,191.8,242.7z M206,209.5c2.1,0.4,2.7-0.8,3.5-1.5c15.7-14,31.3-27.9,46.9-42c2.3-2.1,4.5-2.9,7.5-2.9
	c19.2,0.1,38.3,0.1,57.5,0c17.8-0.1,31.3-13.5,31.5-31.3c0.1-20.5,0.1-41,0-61.5C352.8,52.6,339.2,39,321.5,39
	c-41.8-0.1-83.6-0.1-125.4,0c-17.9,0-31.2,13.3-31.3,31.3c-0.1,20.5,0,41,0,61.5c0,4.7,0.7,9.3,2.9,13.5
	c6.9,13.5,18.3,18.8,32.9,17.7c4.2-0.3,6.1,0.7,5.6,5.3c-0.4,4.5-0.1,9-0.1,13.5C206,191.1,206,200.3,206,209.5z"/>
<path class="st1" d="M250.2,215.6c8-8.2,16-16.3,24-24.6c1.5-1.6,3.4-1.1,5.2-1.2c17.5,0,35-0.1,52.5,0c4.7,0,9.3-0.4,13.9-1.3
	c22.8-4.4,35.7-20.1,36.1-44.7c0.4-19.3,0.1-38.6,0.1-58c0-1.7,0-3.3,0-5.7c5.2,2.3,8.9,5.7,12.1,9.6c6.5,7.8,9.7,17,9.8,27.1
	c0.1,19.3,0,38.6,0,58c0,24.2-13.5,38.5-37.7,40c-8.1,0.5-8.1,0.5-8.3,8.8c-0.6,17.4-1.3,34.9-1.9,52.7c-4-3.8-7.7-7.1-11.3-10.7
	c-14.6-15.1-29.2-30.1-43.7-45.3c-2.4-2.5-4.7-3.6-8.2-3.5c-14,0.2-27.9,0.1-41.9,0.1C250.6,216.5,250.4,216.1,250.2,215.6z"/>
<path class="st1" d="M343.1,37.5H172.4c-6.8,0-12.4,5.6-12.4,12.4v101.7c0,6.8,5.6,12.4,12.4,12.4h28.1l5,58.5l63.7-58.5h73.9
	c6.8,0,12.4-5.6,12.4-12.4V49.9C355.5,43.1,349.9,37.5,343.1,37.5z"/>
<path class="st2" d="M258.5,89.6c7-0.1,13.2,5.7,13.4,12.8c0.2,7.3-5.6,13.5-13,13.6s-13.6-5.7-13.7-13
	C245.1,95.8,251.1,89.7,258.5,89.6z"/>
<path class="st2" d="M203.2,116c-7.4-0.1-13.2-6.1-13.1-13.5c0.2-7,6.3-13,13.3-12.9c7.4,0.1,13.5,6.3,13.4,13.4
	C216.6,110.3,210.6,116.1,203.2,116z"/>
<path class="st2" d="M327,102.7c0.1,7.4-5.8,13.3-13.2,13.3c-7.3,0-13.3-6-13.3-13.3c0-7,5.9-12.9,13.1-13.1
	C320.8,89.4,326.9,95.4,327,102.7z"/>
<g class="st3">
	<path class="st1" d="M98.7,330.1l3.3,0.8c-0.7,2.7-2,4.8-3.8,6.3c-1.8,1.4-4,2.2-6.7,2.2c-2.7,0-4.9-0.6-6.6-1.7s-3-2.7-3.9-4.8
		c-0.9-2.1-1.3-4.3-1.3-6.8c0-2.6,0.5-4.9,1.5-6.9s2.4-3.4,4.3-4.5s3.9-1.5,6.1-1.5c2.5,0,4.6,0.6,6.4,1.9s2.9,3.1,3.6,5.4l-3.3,0.8
		c-0.6-1.8-1.4-3.2-2.5-4c-1.1-0.8-2.5-1.3-4.2-1.3c-1.9,0-3.6,0.5-4.9,1.4s-2.2,2.2-2.7,3.7c-0.5,1.6-0.8,3.2-0.8,4.8
		c0,2.1,0.3,4,0.9,5.6c0.6,1.6,1.6,2.8,2.9,3.6c1.3,0.8,2.7,1.2,4.3,1.2c1.9,0,3.4-0.5,4.7-1.6S98.2,332.2,98.7,330.1z"/>
	<path class="st1" d="M137.9,338.9v-25.2h3.3v10.3h13.1v-10.3h3.3v25.2h-3.3V327h-13.1v11.9H137.9z"/>
	<path class="st1" d="M192.1,338.9l9.7-25.2h3.6l10.3,25.2h-3.8l-2.9-7.6h-10.5l-2.8,7.6H192.1z M199.4,328.6h8.5l-2.6-7
		c-0.8-2.1-1.4-3.9-1.8-5.2c-0.3,1.6-0.8,3.2-1.4,4.8L199.4,328.6z"/>
	<path class="st1" d="M253.8,338.9v-22.2h-8.3v-3h20v3h-8.3v22.2H253.8z"/>
	<path class="st1" d="M341.4,338.9v-25.2h3.4l13.2,19.8v-19.8h3.2v25.2h-3.4l-13.2-19.8v19.8H341.4z"/>
	<path class="st1" d="M397.5,326.6c0-4.2,1.1-7.5,3.4-9.8s5.1-3.5,8.7-3.5c2.3,0,4.4,0.6,6.3,1.7s3.3,2.7,4.3,4.6s1.5,4.2,1.5,6.8
		c0,2.6-0.5,4.8-1.5,6.9c-1,2-2.5,3.5-4.4,4.6c-1.9,1-3.9,1.6-6.1,1.6c-2.4,0-4.5-0.6-6.4-1.7c-1.9-1.1-3.3-2.7-4.2-4.7
		C398,331,397.5,328.9,397.5,326.6z M400.9,326.7c0,3,0.8,5.4,2.4,7.2c1.6,1.7,3.7,2.6,6.1,2.6c2.5,0,4.6-0.9,6.2-2.6
		c1.6-1.8,2.4-4.3,2.4-7.5c0-2.1-0.3-3.8-1-5.4c-0.7-1.5-1.7-2.7-3-3.6c-1.3-0.8-2.8-1.3-4.5-1.3c-2.4,0-4.4,0.8-6.1,2.4
		S400.9,322.9,400.9,326.7z"/>
	<path class="st1" d="M461.9,338.9l-6.7-25.2h3.4l3.8,16.5c0.4,1.7,0.8,3.4,1.1,5.2c0.6-2.7,1-4.2,1.1-4.7l4.8-17h4l3.6,12.8
		c0.9,3.2,1.6,6.1,2,8.9c0.3-1.6,0.7-3.4,1.3-5.5l4-16.2h3.4l-6.9,25.2h-3.2l-5.3-19.2c-0.4-1.6-0.7-2.6-0.8-3
		c-0.3,1.2-0.5,2.1-0.7,3l-5.3,19.2H461.9z"/>
</g>
<path class="st0" d="M250.1,216.1c0.2,0.4,0.4,0.9,0.6,1.3c14,0,27.9,0.1,41.9-0.1c3.5,0,5.9,1.1,8.2,3.5
	c14.5,15.2,29.1,30.3,43.7,45.3c3.5,3.6,7.3,7,11.3,10.7c0.7-17.8,1.3-35.2,1.9-52.7c0.3-8.3,0.2-8.3,8.3-8.8
	c24.2-1.5,37.7-15.8,37.7-40c0-19.3,0.1-38.6,0-58c0-10.2-3.2-19.3-9.8-27.1c-3.2-3.9-6.9-7.3-12.1-9.6c0,2.4,0,4,0,5.7
	c0,19.3,0.3,38.6-0.1,58c-0.5,24.5-13.4,40.3-36.1,44.7c-4.6,0.9-9.2,1.3-13.9,1.3c-17.5-0.1-35,0-52.5,0c-1.8,0-3.6-0.4-5.2,1.2
	C266.1,199.8,258.1,207.9,250.1,216.1z"/>
<path class="st0" d="M191.7,243.2c0-20.1-0.2-38.9,0.1-57.7c0.1-5.6-1.2-7.8-7-9.1c-20.5-4.5-34.7-22.7-34.8-43.8
	c-0.1-20.8-0.1-41.7,0-62.5c0.2-24.5,19.7-44.6,44.4-44.8c42.8-0.3,85.7-0.3,128.5,0c24.8,0.2,44,20.1,44.1,45
	c0.1,20.3,0.1,40.7,0,61c-0.1,27.2-19.7,46.8-47.1,46.9c-16.8,0.1-33.7,0.1-50.5,0c-3.2,0-5.6,0.9-8,3c-21.9,19.8-43.9,39.4-65.9,59
	C194.7,241,193.8,241.6,191.7,243.2z M205.9,210c2.1,0.4,2.7-0.8,3.5-1.5c15.7-14,31.3-27.9,46.9-42c2.3-2.1,4.5-2.9,7.5-2.9
	c19.2,0.1,38.3,0.1,57.5,0c17.8-0.1,31.3-13.5,31.5-31.3c0.1-20.5,0.1-41,0-61.5c-0.1-17.7-13.7-31.3-31.4-31.3
	c-41.8-0.1-83.6-0.1-125.4,0c-17.9,0-31.2,13.3-31.3,31.3c-0.1,20.5,0,41,0,61.5c0,4.7,0.7,9.3,2.9,13.5
	c6.9,13.5,18.3,18.8,32.9,17.7c4.2-0.3,6.1,0.7,5.6,5.3c-0.4,4.5-0.1,9-0.1,13.5C205.9,191.6,205.9,200.8,205.9,210z"/>
<path class="st0" d="M250.1,216.1c8-8.2,16-16.3,24-24.6c1.5-1.6,3.4-1.1,5.2-1.2c17.5,0,35-0.1,52.5,0c4.7,0,9.3-0.4,13.9-1.3
	c22.8-4.4,35.7-20.1,36.1-44.7c0.4-19.3,0.1-38.6,0.1-58c0-1.7,0-3.3,0-5.7c5.2,2.3,8.9,5.7,12.1,9.6c6.5,7.8,9.7,17,9.8,27.1
	c0.1,19.3,0,38.6,0,58c0,24.2-13.5,38.5-37.7,40c-8.1,0.5-8.1,0.5-8.3,8.8c-0.6,17.4-1.3,34.9-1.9,52.7c-4-3.8-7.7-7.1-11.3-10.7
	C330,251,315.4,236,300.9,220.8c-2.4-2.5-4.7-3.6-8.2-3.5c-14,0.2-27.9,0.1-41.9,0.1C250.5,217,250.3,216.6,250.1,216.1z"/>
<path class="st0" d="M258.4,90.1c7-0.1,13.2,5.7,13.4,12.8c0.2,7.3-5.6,13.5-13,13.6c-7.4,0.1-13.6-5.7-13.7-13
	C245,96.3,251,90.2,258.4,90.1z"/>
<path class="st0" d="M203.1,116.5c-7.4-0.1-13.2-6.1-13.1-13.5c0.2-7,6.3-13,13.3-12.9c7.4,0.1,13.5,6.3,13.4,13.4
	C216.5,110.8,210.5,116.6,203.1,116.5z"/>
<path class="st0" d="M326.9,103.2c0.1,7.4-5.8,13.3-13.2,13.3c-7.3,0-13.3-6-13.3-13.3c0-7,5.9-12.9,13.1-13.1
	C320.7,89.9,326.8,95.9,326.9,103.2z"/>
<g class="st4">
	<path class="st5" d="M98.7,330.1l3.3,0.8c-0.7,2.7-2,4.8-3.8,6.3c-1.8,1.4-4,2.2-6.7,2.2c-2.7,0-4.9-0.6-6.6-1.7s-3-2.7-3.9-4.8
		c-0.9-2.1-1.3-4.3-1.3-6.8c0-2.6,0.5-4.9,1.5-6.9s2.4-3.4,4.3-4.5s3.9-1.5,6.1-1.5c2.5,0,4.6,0.6,6.4,1.9s2.9,3.1,3.6,5.4l-3.3,0.8
		c-0.6-1.8-1.4-3.2-2.5-4c-1.1-0.8-2.5-1.3-4.2-1.3c-1.9,0-3.6,0.5-4.9,1.4s-2.2,2.2-2.7,3.7c-0.5,1.6-0.8,3.2-0.8,4.8
		c0,2.1,0.3,4,0.9,5.6c0.6,1.6,1.6,2.8,2.9,3.6c1.3,0.8,2.7,1.2,4.3,1.2c1.9,0,3.4-0.5,4.7-1.6S98.2,332.2,98.7,330.1z"/>
	<path class="st5" d="M137.9,338.9v-25.2h3.3v10.3h13.1v-10.3h3.3v25.2h-3.3V327h-13.1v11.9H137.9z"/>
	<path class="st5" d="M192.1,338.9l9.7-25.2h3.6l10.3,25.2h-3.8l-2.9-7.6h-10.5l-2.8,7.6H192.1z M199.4,328.6h8.5l-2.6-7
		c-0.8-2.1-1.4-3.9-1.8-5.2c-0.3,1.6-0.8,3.2-1.4,4.8L199.4,328.6z"/>
	<path class="st5" d="M253.8,338.9v-22.2h-8.3v-3h20v3h-8.3v22.2H253.8z"/>
	<path class="st5" d="M341.4,338.9v-25.2h3.4l13.2,19.8v-19.8h3.2v25.2h-3.4l-13.2-19.8v19.8H341.4z"/>
	<path class="st5" d="M397.5,326.6c0-4.2,1.1-7.5,3.4-9.8s5.1-3.5,8.7-3.5c2.3,0,4.4,0.6,6.3,1.7s3.3,2.7,4.3,4.6s1.5,4.2,1.5,6.8
		c0,2.6-0.5,4.8-1.5,6.9c-1,2-2.5,3.5-4.4,4.6c-1.9,1-3.9,1.6-6.1,1.6c-2.4,0-4.5-0.6-6.4-1.7c-1.9-1.1-3.3-2.7-4.2-4.7
		C398,331,397.5,328.9,397.5,326.6z M400.9,326.7c0,3,0.8,5.4,2.4,7.2c1.6,1.7,3.7,2.6,6.1,2.6c2.5,0,4.6-0.9,6.2-2.6
		c1.6-1.8,2.4-4.3,2.4-7.5c0-2.1-0.3-3.8-1-5.4c-0.7-1.5-1.7-2.7-3-3.6c-1.3-0.8-2.8-1.3-4.5-1.3c-2.4,0-4.4,0.8-6.1,2.4
		S400.9,322.9,400.9,326.7z"/>
	<path class="st5" d="M461.9,338.9l-6.7-25.2h3.4l3.8,16.5c0.4,1.7,0.8,3.4,1.1,5.2c0.6-2.7,1-4.2,1.1-4.7l4.8-17h4l3.6,12.8
		c0.9,3.2,1.6,6.1,2,8.9c0.3-1.6,0.7-3.4,1.3-5.5l4-16.2h3.4l-6.9,25.2h-3.2l-5.3-19.2c-0.4-1.6-0.7-2.6-0.8-3
		c-0.3,1.2-0.5,2.1-0.7,3l-5.3,19.2H461.9z"/>
</g>
</svg>
