<?xml version="1.0" encoding="utf-8"?>
<!-- Generator: Adobe Illustrator 22.0.0, SVG Export Plug-In . SVG Version: 6.00 Build 0)  -->
<svg version="1.1" id="圖層_1" xmlns="http://www.w3.org/2000/svg" xmlns:xlink="http://www.w3.org/1999/xlink" x="0px" y="0px"
	 viewBox="0 0 87 151.5" style="enable-background:new 0 0 87 151.5;" xml:space="preserve">
<style type="text/css">
	.st0{display:none;fill:#E3C5E7;}
	.st1{display:none;fill:#973BA8;}
	.st2{fill:#973BA8;}
	.st3{fill:#FFFFFF;}
	.st4{fill:#E3C5E7;}
</style>
<path class="st0" d="M17.3,59.7c6.5,0.6,12.2-1,17.4-4.8c-0.8-0.1-1.5-0.2-2.1-0.3c-4.1-0.9-6.9-3.4-8.6-7.2
	c-0.1-0.2-0.3-0.5-0.1-0.6c0.2-0.2,0.4,0,0.7,0c1.4,0.2,2.8,0.1,4.4-0.3c-2-0.5-3.7-1.3-5.1-2.5c-2.6-2.2-4-5.1-4.2-8.6
	c0-0.6,0.2-0.5,0.6-0.4c2,0.9,3.3,1.2,4.5,1.1c-1-0.9-2-1.7-2.7-2.7c-2.7-3.9-3-8.1-1.1-12.4c0.2-0.5,0.4-0.5,0.8-0.1
	c5,5.9,11.3,9.6,18.9,11.2c1.5,0.3,2.9,0.5,4.5,0.6c0.5,0,0.6-0.1,0.5-0.6c-0.7-4.1,0.5-7.7,3.5-10.6c4.5-4.4,11.8-4.4,16.4,0
	c0.3,0.3,0.7,0.4,1.1,0.3c2.1-0.5,4.2-1.3,6.1-2.3c0.2-0.1,0.3-0.2,0.7-0.3c-0.9,2.8-2.6,4.8-5,6.4c2.3-0.3,4.4-0.9,6.4-1.7
	c0,0.3-0.2,0.5-0.3,0.7c-1.4,1.9-3,3.6-4.9,5c-0.3,0.3-0.5,0.5-0.5,1c0.1,9.1-2.9,17.2-9,24c-4.8,5.4-10.9,8.7-18.1,10.1
	c-8.4,1.6-16.4,0.2-23.9-4.1C18,60.1,17.7,60,17.3,59.7z"/>
<path class="st1" d="M15.8,131.2c6.5,0.6,12.2-1,17.4-4.8c-0.8-0.1-1.5-0.2-2.1-0.3c-4.1-0.9-6.9-3.4-8.6-7.2
	c-0.1-0.2-0.3-0.5-0.1-0.6c0.2-0.2,0.4,0,0.7,0c1.4,0.2,2.8,0.1,4.4-0.3c-2-0.5-3.7-1.3-5.1-2.5c-2.6-2.2-4-5.1-4.2-8.6
	c0-0.6,0.2-0.5,0.6-0.4c2,0.9,3.3,1.2,4.5,1.1c-1-0.9-2-1.7-2.7-2.7c-2.7-3.9-3-8.1-1.1-12.4c0.2-0.5,0.4-0.5,0.8-0.1
	c5,5.9,11.3,9.6,18.9,11.2c1.5,0.3,2.9,0.5,4.5,0.6c0.5,0,0.6-0.1,0.5-0.6c-0.7-4.1,0.5-7.7,3.5-10.6c4.5-4.4,11.8-4.4,16.4,0
	c0.3,0.3,0.7,0.4,1.1,0.3c2.1-0.5,4.2-1.3,6.1-2.3c0.2-0.1,0.3-0.2,0.7-0.3c-0.9,2.8-2.6,4.8-5,6.4c2.3-0.3,4.4-0.9,6.4-1.7
	c0,0.3-0.2,0.5-0.3,0.7c-1.4,1.9-3,3.6-4.9,5c-0.3,0.3-0.5,0.5-0.5,1c0.1,9.1-2.9,17.2-9,24c-4.8,5.4-10.9,8.7-18.1,10.1
	c-8.4,1.6-16.4,0.2-23.9-4.1C16.5,131.6,16.2,131.5,15.8,131.2z"/>
<g>
	<path id="Blue_1_" class="st2" d="M65.4,137c1.4,0,2.6-1.2,2.6-2.6V92.5c0-1.4-1.2-2.6-2.6-2.6H23.5c-1.4,0-2.6,1.2-2.6,2.6v41.9
		c0,1.4,1.2,2.6,2.6,2.6H65.4z"/>
	<path id="f" class="st3" d="M53.4,137v-18.3h6.1l0.9-7.1h-7v-4.5c0-2.1,0.6-3.5,3.5-3.5l3.8,0v-6.4C60,97.2,57.8,97,55.2,97
		c-5.4,0-9.1,3.3-9.1,9.4v5.2h-6.1v7.1H46V137H53.4z"/>
</g>
<g>
	<path id="Blue_2_" class="st4" d="M65.9,65c1.4,0,2.6-1.2,2.6-2.6V20.5c0-1.4-1.2-2.6-2.6-2.6H24c-1.4,0-2.6,1.2-2.6,2.6v41.9
		c0,1.4,1.2,2.6,2.6,2.6H65.9z"/>
	<path id="f_1_" class="st3" d="M53.9,65V46.7H60l0.9-7.1h-7v-4.5c0-2.1,0.6-3.5,3.5-3.5l3.8,0v-6.4c-0.7-0.1-2.9-0.3-5.5-0.3
		c-5.4,0-9.1,3.3-9.1,9.4v5.2h-6.1v7.1h6.1V65H53.9z"/>
</g>
</svg>
