<?xml version="1.0" encoding="utf-8"?>
<!-- Generator: Adobe Illustrator 22.0.0, SVG Export Plug-In . SVG Version: 6.00 Build 0)  -->
<svg version="1.1" xmlns="http://www.w3.org/2000/svg" xmlns:xlink="http://www.w3.org/1999/xlink" x="0px" y="0px"
	 viewBox="0 0 87 151.5" style="enable-background:new 0 0 87 151.5;" xml:space="preserve">
<style type="text/css">
	.st0{display:none;fill:#E3C5E7;}
	.st1{display:none;fill:#973BA8;}
	.st2{display:none;}
	.st3{display:inline;fill:#973BA8;}
	.st4{display:inline;fill:#FFFFFF;}
	.st5{display:inline;fill:#E3C5E7;}
	.st6{fill:#973BA8;}
	.st7{fill:#E3C5E7;}
</style>
<g id="圖層_1">
	<path class="st0" d="M17.3,59.7c6.5,0.6,12.2-1,17.4-4.8c-0.8-0.1-1.5-0.2-2.1-0.3c-4.1-0.9-6.9-3.4-8.6-7.2
		c-0.1-0.2-0.3-0.5-0.1-0.6c0.2-0.2,0.4,0,0.7,0c1.4,0.2,2.8,0.1,4.4-0.3c-2-0.5-3.7-1.3-5.1-2.5c-2.6-2.2-4-5.1-4.2-8.6
		c0-0.6,0.2-0.5,0.6-0.4c2,0.9,3.3,1.2,4.5,1.1c-1-0.9-2-1.7-2.7-2.7c-2.7-3.9-3-8.1-1.1-12.4c0.2-0.5,0.4-0.5,0.8-0.1
		c5,5.9,11.3,9.6,18.9,11.2c1.5,0.3,2.9,0.5,4.5,0.6c0.5,0,0.6-0.1,0.5-0.6c-0.7-4.1,0.5-7.7,3.5-10.6c4.5-4.4,11.8-4.4,16.4,0
		c0.3,0.3,0.7,0.4,1.1,0.3c2.1-0.5,4.2-1.3,6.1-2.3c0.2-0.1,0.3-0.2,0.7-0.3c-0.9,2.8-2.6,4.8-5,6.4c2.3-0.3,4.4-0.9,6.4-1.7
		c0,0.3-0.2,0.5-0.3,0.7c-1.4,1.9-3,3.6-4.9,5c-0.3,0.3-0.5,0.5-0.5,1c0.1,9.1-2.9,17.2-9,24c-4.8,5.4-10.9,8.7-18.1,10.1
		c-8.4,1.6-16.4,0.2-23.9-4.1C18,60.1,17.7,60,17.3,59.7z"/>
	<path class="st1" d="M15.8,131.2c6.5,0.6,12.2-1,17.4-4.8c-0.8-0.1-1.5-0.2-2.1-0.3c-4.1-0.9-6.9-3.4-8.6-7.2
		c-0.1-0.2-0.3-0.5-0.1-0.6c0.2-0.2,0.4,0,0.7,0c1.4,0.2,2.8,0.1,4.4-0.3c-2-0.5-3.7-1.3-5.1-2.5c-2.6-2.2-4-5.1-4.2-8.6
		c0-0.6,0.2-0.5,0.6-0.4c2,0.9,3.3,1.2,4.5,1.1c-1-0.9-2-1.7-2.7-2.7c-2.7-3.9-3-8.1-1.1-12.4c0.2-0.5,0.4-0.5,0.8-0.1
		c5,5.9,11.3,9.6,18.9,11.2c1.5,0.3,2.9,0.5,4.5,0.6c0.5,0,0.6-0.1,0.5-0.6c-0.7-4.1,0.5-7.7,3.5-10.6c4.5-4.4,11.8-4.4,16.4,0
		c0.3,0.3,0.7,0.4,1.1,0.3c2.1-0.5,4.2-1.3,6.1-2.3c0.2-0.1,0.3-0.2,0.7-0.3c-0.9,2.8-2.6,4.8-5,6.4c2.3-0.3,4.4-0.9,6.4-1.7
		c0,0.3-0.2,0.5-0.3,0.7c-1.4,1.9-3,3.6-4.9,5c-0.3,0.3-0.5,0.5-0.5,1c0.1,9.1-2.9,17.2-9,24c-4.8,5.4-10.9,8.7-18.1,10.1
		c-8.4,1.6-16.4,0.2-23.9-4.1C16.5,131.6,16.2,131.5,15.8,131.2z"/>
	<g class="st2">
		<path id="Blue_1_" class="st3" d="M65.4,137c1.4,0,2.6-1.2,2.6-2.6V92.5c0-1.4-1.2-2.6-2.6-2.6H23.5c-1.4,0-2.6,1.2-2.6,2.6v41.9
			c0,1.4,1.2,2.6,2.6,2.6H65.4z"/>
		<path id="f" class="st4" d="M53.4,137v-18.3h6.1l0.9-7.1h-7v-4.5c0-2.1,0.6-3.5,3.5-3.5l3.8,0v-6.4C60,97.2,57.8,97,55.2,97
			c-5.4,0-9.1,3.3-9.1,9.4v5.2h-6.1v7.1H46V137H53.4z"/>
	</g>
	<g class="st2">
		<path id="Blue_2_" class="st5" d="M65.9,65c1.4,0,2.6-1.2,2.6-2.6V20.5c0-1.4-1.2-2.6-2.6-2.6H24c-1.4,0-2.6,1.2-2.6,2.6v41.9
			c0,1.4,1.2,2.6,2.6,2.6H65.9z"/>
		<path id="f_1_" class="st4" d="M53.9,65V46.7H60l0.9-7.1h-7v-4.5c0-2.1,0.6-3.5,3.5-3.5l3.8,0v-6.4c-0.7-0.1-2.9-0.3-5.5-0.3
			c-5.4,0-9.1,3.3-9.1,9.4v5.2h-6.1v7.1h6.1V65H53.9z"/>
	</g>
</g>
<g id="圖層_2">
	<g>
		<path class="st6" d="M36.1,89.9c6.8,0,13.7,0,20.5,0c0,0,0.1,0,0.1,0c0.5,0,1,0.1,1.4,0.2c1.8,0.3,3.5,0.9,5,1.9
			c3.6,2.4,5.6,5.7,6,10c0,0.1,0,0.3,0,0.4c0,6.9,0,13.7,0,20.6c0,0,0,0.1,0,0.1c-0.1,1-0.3,2.1-0.6,3.1c-1.7,5.5-6.9,9.4-12.6,9.4
			c-6.3,0-12.6,0-18.9,0c-0.6,0-1.2,0-1.7-0.1c-1.3-0.1-2.5-0.5-3.7-1c-1.8-0.8-3.3-1.8-4.6-3.3c-2.2-2.5-3.4-5.4-3.4-8.7
			c0-6.5,0-13,0-19.4c0-1.1,0.1-2.1,0.4-3.2c0.7-2.5,1.9-4.7,3.9-6.4c2.2-2,4.8-3.2,7.8-3.5C35.7,89.9,35.9,90,36.1,89.9z M46.3,132
			c3.2,0,6.4,0,9.5,0c0.6,0,1.1,0,1.7-0.1c1.8-0.3,3.4-1,4.8-2.3c2.2-2,3.3-4.4,3.3-7.4c0-6.3,0-12.7,0-19c0-0.5,0-1.1-0.1-1.6
			c-0.3-1.7-1-3.3-2.1-4.6c-1.9-2.3-4.4-3.5-7.4-3.5c-6.4,0-12.8,0-19.2,0c-1.5,0-2.9,0.3-4.2,0.9c-3.4,1.6-5.5,5-5.6,8.8
			c0,6.4,0,12.8,0,19.2c0,0.6,0,1.1,0.2,1.7c0.4,2.3,1.5,4.2,3.3,5.7c1.8,1.5,3.8,2.2,6.1,2.3C39.9,132,43.1,132,46.3,132z"/>
		<path class="st6" d="M34,112.7c0-6.7,5.5-12.3,12.3-12.3c6.8,0,12.3,5.5,12.3,12.3c0,6.8-5.5,12.3-12.3,12.3
			C39.6,125,34,119.5,34,112.7z M55.1,112.7c0-4.9-3.9-8.8-8.8-8.8c-4.9,0-8.8,3.9-8.8,8.8c0,4.9,3.9,8.8,8.8,8.8
			C51.2,121.5,55.1,117.6,55.1,112.7z"/>
		<path class="st6" d="M59.5,96.9c1.5,0,2.6,1.2,2.6,2.6c0,1.4-1.2,2.6-2.6,2.6c-1.4,0-2.6-1.2-2.6-2.6C56.8,98.1,58,96.9,59.5,96.9
			z"/>
	</g>
	<g>
		<path class="st7" d="M35.3,19.2c6.8,0,13.7,0,20.5,0c0,0,0.1,0,0.1,0c0.5,0,1,0.1,1.4,0.2c1.8,0.3,3.5,0.9,5,1.9
			c3.6,2.4,5.6,5.7,6,10c0,0.1,0,0.3,0,0.4c0,6.9,0,13.7,0,20.6c0,0,0,0.1,0,0.1c-0.1,1-0.3,2.1-0.6,3.1c-1.7,5.5-6.9,9.4-12.6,9.4
			c-6.3,0-12.6,0-18.9,0c-0.6,0-1.2,0-1.7-0.1c-1.3-0.1-2.5-0.5-3.7-1c-1.8-0.8-3.3-1.8-4.6-3.3c-2.2-2.5-3.4-5.4-3.4-8.7
			c0-6.5,0-13,0-19.4c0-1.1,0.1-2.1,0.4-3.2c0.7-2.5,1.9-4.7,3.9-6.4c2.2-2,4.8-3.2,7.8-3.5C35,19.2,35.2,19.2,35.3,19.2z
			 M45.6,61.3c3.2,0,6.4,0,9.5,0c0.6,0,1.1,0,1.7-0.1c1.8-0.3,3.4-1,4.8-2.3c2.2-2,3.3-4.4,3.3-7.4c0-6.3,0-12.7,0-19
			c0-0.5,0-1.1-0.1-1.6c-0.3-1.7-1-3.3-2.1-4.6c-1.9-2.3-4.4-3.5-7.4-3.5c-6.4,0-12.8,0-19.2,0c-1.5,0-2.9,0.3-4.2,0.9
			c-3.4,1.6-5.5,5-5.6,8.8c0,6.4,0,12.8,0,19.2c0,0.6,0,1.1,0.2,1.7c0.4,2.3,1.5,4.2,3.3,5.7c1.8,1.5,3.8,2.2,6.1,2.3
			C39.1,61.3,42.3,61.3,45.6,61.3z"/>
		<path class="st7" d="M33.3,42c0-6.7,5.5-12.3,12.3-12.3c6.8,0,12.3,5.5,12.3,12.3c0,6.8-5.5,12.3-12.3,12.3
			C38.8,54.2,33.3,48.7,33.3,42z M54.3,42c0-4.9-3.9-8.8-8.8-8.8c-4.9,0-8.8,3.9-8.8,8.8c0,4.9,3.9,8.8,8.8,8.8
			C50.4,50.7,54.3,46.8,54.3,42z"/>
		<path class="st7" d="M58.7,26.2c1.5,0,2.6,1.2,2.6,2.6c0,1.4-1.2,2.6-2.6,2.6c-1.4,0-2.6-1.2-2.6-2.6
			C56.1,27.3,57.3,26.2,58.7,26.2z"/>
	</g>
</g>
</svg>
