<?xml version="1.0" encoding="utf-8"?>
<!-- Generator: Adobe Illustrator 21.0.0, SVG Export Plug-In . SVG Version: 6.00 Build 0)  -->
<svg version="1.1" id="圖層_1" xmlns="http://www.w3.org/2000/svg" xmlns:xlink="http://www.w3.org/1999/xlink" x="0px" y="0px"
	 viewBox="0 0 333.8 83" style="enable-background:new 0 0 333.8 83;" xml:space="preserve">
<style type="text/css">
	.st0{display:none;fill:#511717;}
	.st1{fill:#FFFFFF;}
	.st2{enable-background:new    ;}
</style>
<g id="圖層_2">
</g>
<rect class="st0" width="333.8" height="83"/>
<g>
	<g>
		<path class="st1" d="M49.5,52.5c-0.1,0.1-0.3,0.1-0.4,0.2c0.3,1.1,0.5,2.2,0.9,3.2c0.2,0.6,0,1.4,0.7,1.9c0.4,0.3,0.7,0.6,1.2,0.3
			s0.6-0.8,0.4-1.2C51.3,55.5,50.8,53.7,49.5,52.5z"/>
		<path class="st1" d="M54.2,47.3c-0.1,0.1-0.1,0.3-0.2,0.4c1,0.6,1.9,1.2,2.9,1.6c0.6,0.3,1,1,1.8,0.9c0.5,0,0.9-0.1,1.1-0.7
			c0.1-0.5-0.1-1-0.6-1.1C57.6,48.1,56,47.2,54.2,47.3z"/>
		<path class="st1" d="M67.5,43.9c-0.4-0.7-0.9-1.4-2-1.3c-3.4,0.4-6.9,0.7-10.3,1c-0.2,0-0.4,0-0.5,0.1c0-1.1-0.3-2.1-0.6-3.1
			c1-0.3,2.1-0.5,3.1-0.9c0.6-0.2,1.4,0,1.9-0.7c0.3-0.4,0.6-0.7,0.3-1.2s-0.8-0.6-1.2-0.4c-1.4,0.9-3.1,1.4-4.3,2.7
			c-0.3-0.8-0.8-1.5-1.3-2.1c0.1-0.1,0.2-0.1,0.2-0.2c2.4-1.9,4.8-3.8,7.2-5.7c0.6-0.5,1.6-1.1,1.2-2.2c0.1-0.6,0.1-1.3-0.6-1.4
			c-0.8-0.2-1.6-0.4-2.3,0.5c-2.2,2.7-4.4,5.3-6.6,8l-0.1,0.1c-0.7-0.7-1.6-1.3-2.5-1.7c0.5-0.9,1-1.7,1.5-2.6c0.3-0.6,1-1,0.9-1.8
			c0-0.5-0.1-0.9-0.7-1.1c-0.5-0.1-1,0.1-1.1,0.6c-0.3,1.6-1.1,3.1-1.2,4.7c-0.8-0.3-1.6-0.5-2.5-0.6l0,0c0.3-3,0.8-6.1,1-9.1
			c0.1-0.8,0.4-1.9-0.7-2.4c-0.4-0.5-0.8-1-1.4-0.6c-0.7,0.4-1.4,0.9-1.3,2c0.4,3.4,0.7,6.8,1,10.2c-1,0.1-2,0.3-2.9,0.7
			c-0.2-0.9-0.5-1.9-0.8-2.8c-0.2-0.6,0-1.4-0.7-1.9c-0.4-0.3-0.7-0.6-1.2-0.3c-0.5,0.3-0.6,0.8-0.4,1.2c0.9,1.3,1.4,2.9,2.4,4.1
			c-0.8,0.4-1.6,0.9-2.2,1.5c-1.9-2.4-3.7-4.8-5.7-7.1c-0.5-0.6-1.1-1.6-2.2-1.2c-0.6-0.1-1.3-0.1-1.4,0.6c-0.2,0.8-0.4,1.6,0.5,2.3
			c2.7,2.1,5.3,4.3,7.9,6.5c-0.6,0.7-1.1,1.5-1.4,2.4c-0.8-0.5-1.6-1-2.5-1.4c-0.6-0.3-1-1-1.8-0.9c-0.5,0-0.9,0.1-1.1,0.7
			c-0.1,0.5,0.1,1,0.6,1.1c1.5,0.3,3,1.1,4.6,1.2c-0.3,0.9-0.4,1.8-0.4,2.7c-0.1,0-0.1,0-0.2,0c-3-0.3-6.1-0.8-9.1-1
			c-0.8-0.1-1.9-0.4-2.4,0.7c-0.5,0.4-1,0.8-0.6,1.4c0.4,0.7,0.9,1.4,2,1.3c3.4-0.4,6.9-0.7,10.3-1c0.1,0,0.1,0,0.2,0
			c0.1,0.9,0.4,1.8,0.7,2.6c-1,0.3-2,0.5-2.9,0.8c-0.6,0.2-1.4,0-1.9,0.7c-0.3,0.4-0.6,0.7-0.3,1.2c0.3,0.5,0.8,0.6,1.2,0.4
			c1.4-0.9,3-1.4,4.2-2.5c0.4,0.8,1,1.6,1.6,2.2c-0.1,0.1-0.3,0.2-0.4,0.3c-2.4,1.9-4.8,3.8-7.2,5.7c-0.6,0.5-1.6,1.1-1.2,2.2
			c-0.1,0.6-0.1,1.3,0.6,1.4c0.8,0.2,1.6,0.4,2.3-0.5c2.2-2.7,4.4-5.3,6.6-8c0.1-0.1,0.2-0.3,0.3-0.4c0.7,0.6,1.6,1,2.5,1.4
			c-0.5,0.9-1.1,1.9-1.6,2.8c-0.3,0.6-1,1-0.9,1.8c0,0.5,0.1,0.9,0.7,1.1c0.5,0.1,1-0.1,1.1-0.6c0.4-1.7,1.2-3.2,1.2-5
			c0.9,0.3,1.8,0.4,2.7,0.4c-0.1,0.2-0.2,0.5-0.2,0.8c-0.3,3-0.8,6.1-1,9.1c-0.1,0.8-0.4,1.9,0.7,2.4c0.4,0.5,0.8,1,1.4,0.6
			c0.7-0.4,1.4-0.9,1.3-2c-0.4-3.4-0.7-6.9-1-10.3c0-0.3-0.1-0.6-0.2-0.7c2.1-0.2,4-1.1,5.5-2.4c0,0.2,0.2,0.5,0.4,0.7
			c1.9,2.4,3.8,4.8,5.7,7.2c0.5,0.6,1.1,1.6,2.2,1.2c0.6,0.1,1.3,0.1,1.4-0.6c0.2-0.8,0.4-1.6-0.5-2.3c-2.7-2.2-5.3-4.4-8-6.6
			c-0.2-0.2-0.4-0.3-0.7-0.4c1.3-1.5,2.2-3.4,2.4-5.4c0.2,0.1,0.4,0.1,0.6,0.1c3,0.3,6.1,0.8,9.1,1c0.8,0.1,1.9,0.4,2.4-0.7
			C67.4,44.9,67.8,44.5,67.5,43.9z M53.1,41.8c0.1,0.6-0.3,1.1-0.9,1.1c-1.1,0.1-2.2,0.2-3.3,0.3c-0.1-0.1-0.2-0.2-0.2-0.3
			c0-0.3,0.1-0.5,0.4-0.5c1-0.2,1.8-0.8,2.7-1.2C52.3,41,52.9,41.1,53.1,41.8z M49.4,38.4c0.4-0.6,1.1-0.8,1.5-0.2
			c0.4,0.4,0.3,1.1-0.2,1.5c-0.9,0.6-1.8,1.3-2.8,1.9c-0.1,0-0.3-0.1-0.3-0.2c-0.2-0.2-0.1-0.5,0.1-0.6
			C48.4,40.1,48.8,39.2,49.4,38.4z M45.7,40c0.3-0.9,0.2-1.9,0.3-2.9c0.1-0.7,0.5-1.2,1.2-1c0.6,0.2,0.8,0.8,0.5,1.4
			c-0.5,1-0.9,2-1.4,3c-0.1,0-0.3,0.1-0.4,0C45.7,40.4,45.6,40.2,45.7,40z M42.9,36.1C43.5,36,44,36.4,44,37
			c0.1,1.1,0.2,2.2,0.3,3.3c-0.1,0.1-0.2,0.2-0.3,0.2c-0.3,0-0.5-0.1-0.5-0.4c-0.2-1-0.8-1.8-1.2-2.7C42.1,36.9,42.2,36.3,42.9,36.1
			z M39.1,38.5c0.1,0,0.1-0.1,0.2-0.2c0,0,0-0.1,0.1-0.1c0.4-0.3,1-0.2,1.4,0.3c0.6,0.9,1.3,1.8,1.9,2.8c0,0.1-0.1,0.3-0.2,0.3
			c-0.2,0.2-0.5,0.1-0.6-0.1c-0.7-0.7-1.6-1.1-2.3-1.7C39,39.5,38.8,39,39.1,38.5z M37.2,42c0.2-0.6,0.8-0.8,1.4-0.5
			c1,0.5,2,0.9,3,1.4c0,0.1,0.1,0.3,0,0.4c-0.1,0.3-0.3,0.3-0.6,0.3c-0.9-0.3-1.9-0.2-2.9-0.3C37.5,43.1,37,42.7,37.2,42z
			 M37.3,46.3c-0.1-0.6,0.3-1.1,0.9-1.1c1.1-0.1,2.2-0.2,3.3-0.3c0.1,0.1,0.2,0.2,0.2,0.3c0,0.3-0.1,0.5-0.4,0.5
			c-1,0.2-1.8,0.8-2.7,1.2C38,47.1,37.4,47,37.3,46.3z M39.4,49.9c-0.4-0.4-0.3-1.1,0.2-1.5c0.9-0.6,1.8-1.3,2.8-1.9
			c0.1,0,0.3,0.1,0.3,0.2c0.2,0.2,0.1,0.5-0.1,0.6c-0.7,0.7-1.1,1.6-1.7,2.3C40.5,50.3,39.9,50.4,39.4,49.9z M44.7,48.1
			C44.4,49,44.5,50,44.4,51c-0.1,0.7-0.5,1.2-1.2,1c-0.6-0.2-0.8-0.8-0.5-1.4c0.5-1,0.9-2,1.4-3c0.1,0,0.3-0.1,0.4,0
			C44.7,47.7,44.7,47.9,44.7,48.1z M45.4,46.4c-1.2,0-2.2-1-2.2-2.2s1-2.2,2.2-2.2s2.2,1,2.2,2.2S46.6,46.4,45.4,46.4z M47.4,52
			c-0.6,0.1-1.1-0.3-1.1-0.9c-0.1-1.1-0.2-2.2-0.3-3.3c0.1-0.1,0.2-0.2,0.3-0.2c0.3,0,0.5,0.1,0.5,0.4c0.2,1,0.8,1.8,1.2,2.7
			C48.2,51.2,48.1,51.8,47.4,52z M51,49.8c-0.4,0.4-1.1,0.3-1.5-0.2c-0.6-0.9-1.3-1.8-1.9-2.8c0-0.1,0.1-0.3,0.2-0.3
			c0.2-0.2,0.5-0.1,0.6,0.1c0.7,0.7,1.6,1.1,2.3,1.7C51.4,48.7,51.6,49.3,51,49.8z M53.1,46.1c-0.2,0.6-0.8,0.8-1.4,0.5
			c-1-0.5-2-0.9-3-1.4c0-0.1-0.1-0.3,0-0.4c0.1-0.3,0.3-0.3,0.6-0.3c0.9,0.3,1.9,0.2,2.9,0.3C52.9,44.9,53.3,45.4,53.1,46.1z"/>
	</g>
	<g class="st2">
		<path class="st1" d="M87.2,40.2l0.1,4H87c-0.2-1-0.6-1.8-1.3-2.4c-0.7-0.6-1.4-0.9-2.2-0.9c-0.6,0-1.1,0.2-1.4,0.5
			s-0.5,0.7-0.5,1.1c0,0.3,0.1,0.5,0.2,0.7c0.2,0.3,0.4,0.5,0.8,0.8c0.3,0.2,0.9,0.5,1.9,1c1.4,0.7,2.3,1.3,2.8,1.9
			c0.5,0.6,0.7,1.3,0.7,2.1c0,1-0.4,1.9-1.2,2.6c-0.8,0.7-1.8,1.1-3,1.1c-0.4,0-0.7,0-1.1-0.1s-0.8-0.2-1.3-0.4
			C81.4,52,81.1,52,80.9,52c-0.2,0-0.3,0.1-0.5,0.2s-0.3,0.3-0.4,0.5h-0.3v-4.5h0.3c0.3,1.3,0.8,2.2,1.5,2.9c0.7,0.7,1.5,1,2.4,1
			c0.7,0,1.2-0.2,1.6-0.5s0.6-0.8,0.6-1.2c0-0.3-0.1-0.6-0.2-0.8c-0.1-0.3-0.4-0.5-0.7-0.8c-0.3-0.2-0.8-0.5-1.6-0.9
			c-1.1-0.5-1.9-1-2.3-1.4c-0.5-0.4-0.8-0.8-1.1-1.3c-0.3-0.5-0.4-1-0.4-1.5c0-0.9,0.3-1.8,1-2.4c0.7-0.7,1.6-1,2.6-1
			c0.4,0,0.8,0,1.1,0.1c0.3,0.1,0.6,0.2,1,0.4c0.4,0.2,0.7,0.3,0.8,0.3c0.2,0,0.3,0,0.4-0.1s0.2-0.3,0.2-0.7H87.2z"/>
		<path class="st1" d="M109.8,52.1v0.3h-6.2v-0.3h0.4c0.3,0,0.6-0.1,0.8-0.2c0.2-0.1,0.3-0.2,0.4-0.4c0.1-0.1,0.1-0.5,0.1-1.1v-7.8
			c0-0.6,0-1-0.1-1.1c-0.1-0.2-0.2-0.3-0.4-0.4c-0.2-0.1-0.5-0.2-0.8-0.2h-0.4v-0.3h6.2v0.3h-0.4c-0.3,0-0.6,0.1-0.8,0.2
			c-0.2,0.1-0.3,0.2-0.4,0.4c-0.1,0.1-0.1,0.5-0.1,1.1v7.8c0,0.6,0,1,0.1,1.1c0.1,0.2,0.2,0.3,0.4,0.4c0.2,0.1,0.5,0.2,0.8,0.2
			H109.8z"/>
		<path class="st1" d="M129,40.5l5.9,7.4v-5.1c0-0.7-0.1-1.2-0.3-1.4c-0.3-0.3-0.8-0.5-1.4-0.5v-0.3h3.9v0.3c-0.5,0.1-0.8,0.1-1,0.3
			c-0.2,0.1-0.3,0.3-0.4,0.5c-0.1,0.2-0.1,0.6-0.1,1.2v9.9h-0.3l-8.1-9.9v7.6c0,0.7,0.2,1.1,0.5,1.4c0.3,0.2,0.7,0.4,1.1,0.4h0.3
			v0.3h-4.2v-0.3c0.7,0,1.1-0.1,1.4-0.4c0.3-0.3,0.4-0.7,0.4-1.3v-8.4l-0.3-0.3c-0.3-0.3-0.5-0.5-0.7-0.6s-0.5-0.2-0.8-0.2v-0.3H129
			z"/>
		<path class="st1" d="M164.3,40.2v4.2H164c-0.4-1.1-1-2-1.8-2.6s-1.6-0.9-2.6-0.9c-0.9,0-1.6,0.3-2.2,0.8c-0.6,0.5-1,1.2-1.3,2.1
			c-0.2,0.9-0.4,1.8-0.4,2.8c0,1.1,0.1,2.1,0.4,3c0.3,0.9,0.7,1.5,1.3,1.9c0.6,0.4,1.3,0.6,2.1,0.6c0.3,0,0.6,0,0.9-0.1
			c0.3-0.1,0.6-0.2,0.9-0.3v-2.5c0-0.5,0-0.8-0.1-0.9s-0.2-0.3-0.4-0.4s-0.4-0.2-0.7-0.2h-0.3v-0.3h5.8v0.3c-0.4,0-0.7,0.1-0.9,0.2
			c-0.2,0.1-0.3,0.2-0.4,0.5c-0.1,0.1-0.1,0.4-0.1,0.8v2.5c-0.8,0.3-1.6,0.6-2.4,0.8c-0.8,0.2-1.7,0.3-2.6,0.3
			c-1.1,0-2.1-0.2-2.8-0.5c-0.7-0.3-1.4-0.7-2-1.2c-0.6-0.5-1-1.1-1.3-1.7c-0.4-0.8-0.6-1.7-0.6-2.7c0-1.8,0.6-3.3,1.9-4.5
			c1.3-1.2,2.8-1.9,4.8-1.9c0.6,0,1.1,0,1.6,0.1c0.3,0,0.7,0.2,1.3,0.4c0.6,0.2,0.9,0.3,1,0.3c0.2,0,0.3-0.1,0.5-0.2
			c0.1-0.1,0.3-0.3,0.4-0.7H164.3z"/>
		<path class="st1" d="M191.7,48.2l-0.4,4.2h-10.6v-0.3h0.4c0.3,0,0.6-0.1,0.8-0.2c0.2-0.1,0.3-0.2,0.4-0.4c0.1-0.1,0.1-0.5,0.1-1.1
			v-7.8c0-0.6,0-1-0.1-1.1c-0.1-0.2-0.2-0.3-0.4-0.4c-0.2-0.1-0.5-0.2-0.8-0.2h-0.4v-0.3h6.3v0.3h-0.5c-0.3,0-0.6,0.1-0.8,0.2
			c-0.2,0.1-0.3,0.2-0.4,0.4c-0.1,0.1-0.1,0.5-0.1,1.1v7.6c0,0.6,0,1,0.1,1.2s0.2,0.3,0.4,0.4c0.1,0.1,0.5,0.1,1.1,0.1h1
			c0.6,0,1.2-0.1,1.6-0.3s0.8-0.6,1.1-1.1c0.3-0.5,0.6-1.2,0.9-2.1H191.7z"/>
		<path class="st1" d="M211.6,41.2V46h0.2c0.8,0,1.3-0.2,1.6-0.7s0.6-1.2,0.6-2.1h0.3v6.2h-0.3c-0.1-0.7-0.2-1.2-0.4-1.7
			c-0.2-0.4-0.5-0.7-0.8-0.9c-0.3-0.1-0.7-0.2-1.3-0.2v3.4c0,0.7,0,1.1,0.1,1.2c0.1,0.1,0.2,0.3,0.3,0.4s0.4,0.1,0.7,0.1h0.7
			c1.1,0,2-0.3,2.7-0.8c0.7-0.5,1.2-1.3,1.4-2.4h0.3l-0.5,3.8H207v-0.3h0.4c0.3,0,0.6-0.1,0.8-0.2c0.2-0.1,0.3-0.2,0.4-0.4
			c0.1-0.1,0.1-0.5,0.1-1.1v-7.8c0-0.5,0-0.9,0-1c-0.1-0.2-0.2-0.4-0.3-0.5c-0.2-0.2-0.5-0.2-0.9-0.2H207v-0.3h10V44h-0.3
			c-0.2-0.9-0.4-1.5-0.7-1.9c-0.3-0.4-0.7-0.7-1.3-0.8c-0.3-0.1-0.9-0.2-1.8-0.2H211.6z"/>
		<path class="st1" d="M241.5,40.2l0.1,4h-0.4c-0.2-1-0.6-1.8-1.3-2.4c-0.7-0.6-1.4-0.9-2.2-0.9c-0.6,0-1.1,0.2-1.4,0.5
			s-0.5,0.7-0.5,1.1c0,0.3,0.1,0.5,0.2,0.7c0.2,0.3,0.4,0.5,0.8,0.8c0.3,0.2,0.9,0.5,1.9,1c1.4,0.7,2.3,1.3,2.8,1.9
			c0.5,0.6,0.7,1.3,0.7,2.1c0,1-0.4,1.9-1.2,2.6c-0.8,0.7-1.8,1.1-3,1.1c-0.4,0-0.7,0-1.1-0.1s-0.8-0.2-1.3-0.4
			c-0.3-0.1-0.5-0.2-0.7-0.2c-0.2,0-0.3,0.1-0.5,0.2s-0.3,0.3-0.4,0.5H234v-4.5h0.3c0.3,1.3,0.8,2.2,1.5,2.9c0.7,0.7,1.5,1,2.4,1
			c0.7,0,1.2-0.2,1.6-0.5c0.4-0.4,0.6-0.8,0.6-1.2c0-0.3-0.1-0.6-0.2-0.8c-0.1-0.3-0.4-0.5-0.7-0.8c-0.3-0.2-0.8-0.5-1.6-0.9
			c-1.1-0.5-1.9-1-2.3-1.4c-0.5-0.4-0.8-0.8-1.1-1.3c-0.3-0.5-0.4-1-0.4-1.5c0-0.9,0.3-1.8,1-2.4c0.7-0.7,1.6-1,2.6-1
			c0.4,0,0.8,0,1.1,0.1c0.3,0.1,0.6,0.2,1,0.4c0.4,0.2,0.7,0.3,0.8,0.3c0.2,0,0.3,0,0.4-0.1s0.2-0.3,0.2-0.7H241.5z"/>
		<path class="st1" d="M260.2,40.5h5.6l-0.9,2.3h-4.7l-0.4,1.2c2,0.1,3.6,0.6,4.7,1.5c0.9,0.8,1.3,1.7,1.3,2.9
			c0,0.7-0.2,1.4-0.6,2.1s-1,1.2-1.8,1.6c-0.8,0.4-1.6,0.6-2.5,0.6c-1,0-1.7-0.2-2.2-0.5c-0.4-0.3-0.5-0.5-0.5-0.9
			c0-0.3,0.1-0.5,0.3-0.7c0.2-0.2,0.4-0.3,0.7-0.3c0.2,0,0.5,0,0.7,0.1c0.2,0.1,0.6,0.3,1.2,0.7c0.4,0.2,0.7,0.4,0.9,0.5
			c0.2,0.1,0.4,0.1,0.6,0.1c0.5,0,0.9-0.2,1.2-0.5c0.3-0.4,0.5-0.8,0.5-1.3c0-1-0.5-1.9-1.5-2.5c-1-0.6-2.3-1-3.9-1
			c-0.2,0-0.4,0-0.7,0L260.2,40.5z"/>
		<path class="st1" d="M289.1,46.5c0,1.2-0.2,2.3-0.5,3.3c-0.2,0.6-0.5,1.2-0.8,1.6c-0.3,0.4-0.7,0.7-1.1,1
			c-0.4,0.2-0.9,0.4-1.4,0.4c-0.6,0-1.1-0.1-1.6-0.4c-0.5-0.3-0.9-0.7-1.2-1.3c-0.3-0.4-0.5-0.9-0.7-1.6c-0.3-0.9-0.4-1.8-0.4-2.8
			c0-1.3,0.2-2.5,0.5-3.6c0.3-0.9,0.8-1.6,1.4-2.1c0.6-0.5,1.3-0.7,1.9-0.7c0.7,0,1.3,0.2,1.9,0.7c0.6,0.5,1,1.1,1.3,1.9
			C288.9,44,289.1,45.2,289.1,46.5z M286.4,46.4c0-2.1,0-3.3,0-3.6c-0.1-0.8-0.2-1.4-0.4-1.7c-0.1-0.2-0.4-0.3-0.7-0.3
			c-0.3,0-0.5,0.1-0.6,0.2c-0.2,0.2-0.4,0.6-0.4,1.1s-0.1,2.3-0.1,5.4c0,1.7,0.1,2.8,0.2,3.4c0.1,0.4,0.2,0.7,0.4,0.8
			s0.4,0.2,0.6,0.2c0.3,0,0.5-0.1,0.7-0.3c0.2-0.3,0.4-0.8,0.4-1.5L286.4,46.4z"/>
	</g>
</g>
</svg>
