<?xml version="1.0" encoding="utf-8"?>
<!-- Generator: Adobe Illustrator 22.0.0, SVG Export Plug-In . SVG Version: 6.00 Build 0)  -->
<svg version="1.1" id="圖層_1" xmlns="http://www.w3.org/2000/svg" xmlns:xlink="http://www.w3.org/1999/xlink" x="0px" y="0px"
	 viewBox="0 0 300 300" style="enable-background:new 0 0 300 300;" xml:space="preserve">
<style type="text/css">
	.st0{fill:#9C40AB;}
</style>
<path class="st0" d="M245.9,127.1l-83.5-83.5c-0.6-0.6-1.2-1.1-1.9-1.5l-0.3-0.3c-4.5-4.5-11.8-4.5-16.3,0l-87.2,87.2
	c-4.5,4.5-4.5,11.8,0,16.3l4.6,4.6c4.5,4.5,11.8,4.5,16.3,0l74.7-74.7l72.8,72.8c4.4,4.4,11.6,4.4,16,0l4.9-4.9
	C250.3,138.7,250.3,131.5,245.9,127.1z"/>
<path class="st0" d="M248.9,232.1l-83.5-83.5c-0.6-0.6-1.2-1.1-1.9-1.5l-0.3-0.3c-4.5-4.5-11.8-4.5-16.3,0l-87.2,87.2
	c-4.5,4.5-4.5,11.8,0,16.3l4.6,4.6c4.5,4.5,11.8,4.5,16.3,0l74.7-74.7l72.8,72.8c4.4,4.4,11.6,4.4,16,0l4.9-4.9
	C253.3,243.7,253.3,236.5,248.9,232.1z"/>
</svg>
